<svg id="logo-layer" data-name="logo-layer" xmlns="http://www.w3.org/2000/svg" viewBox="0 0 720.11 720.11"><title>vora_logo_20170717</title><path class="cls-1" d="M388.8,28.74c-198.85,0-360.06,161.2-360.06,360.06S189.95,748.86,388.8,748.86,748.86,587.65,748.86,388.8,587.65,28.74,388.8,28.74Zm-44,592.55c-26.12-6.59-61.46-19.45-99.37-44.58-81-53.7-126.13-32.3-126.13-32.3S160.36,516,154.36,419c-2.81-45.41,3.73-82.46,11.09-108.37L344.76,414.19Zm44-283.32L209.44,234.45c18.76-19.33,47.58-43.52,88.32-63.8,87-43.3,91-93.08,91-93.08v.81s4,49.78,91,93.08c40.35,20.08,69,44,87.79,63.25ZM532.2,576.72c-37.94,25.15-73.31,38-99.44,44.59V414.19L612.14,310.62c7.36,25.92,13.91,63,11.1,108.41-6,97,35.09,125.38,35.09,125.38S613.21,523,532.2,576.72Z" transform="translate(-28.74 -28.74)"/></svg>
